<?xml version="1.0" encoding="utf-8"?>
<!-- Generator: Adobe Illustrator 16.0.0, SVG Export Plug-In . SVG Version: 6.00 Build 0)  -->
<!DOCTYPE svg PUBLIC "-//W3C//DTD SVG 1.1//EN" "http://www.w3.org/Graphics/SVG/1.1/DTD/svg11.dtd">
<svg version="1.1" id="Layer_1" xmlns="http://www.w3.org/2000/svg" xmlns:xlink="http://www.w3.org/1999/xlink" x="0px" y="0px"
	 width="49.731px" height="15.084px" viewBox="0 0 49.731 15.084" enable-background="new 0 0 49.731 15.084" xml:space="preserve">
<g opacity="0.2">
	<path d="M43.904,14.183c-3.131,1.715-8.055-0.535-11.043-1.662c-4.083-1.541-8.045-3.392-12.113-4.974
		C16.14,5.754,9.977,3.445,5.086,5.626c-1.591,0.71-7.255,5.694-4.193,7.462c2.652,1.532,7.414-0.138,10.024-0.904
		c6.164-1.809,12.05-4.404,18.085-6.592c5.316-1.927,12.09-5.269,17.889-4.614c1.406,0.159,2.066,1.074,1.881,2.431
		c-0.891,6.511-9.623,4.773-13.991,3.688C27.247,5.227,19.93,0.749,12.17,0.001c-0.282-0.027-0.821,0.367-0.896,0.359
		c7.71,0.742,15.161,5.096,22.611,7.096c4.402,1.182,9.98,2.189,13.879-0.853c2.57-2.006,2.921-5.844-0.752-6.048
		c-4.221-0.235-8.959,1.239-12.875,2.551c-6.453,2.162-12.747,5.021-19.188,7.219c-2.21,0.755-12.162,5.207-13.695,1.704
		c-1.461-3.341,4.539-6.625,6.493-6.822c4.056-0.409,8.386,1.298,12.105,2.699c6.641,2.501,13.488,6.795,20.716,7.169
		c1.426,0.074,2.81-0.325,4.047-1.002C44.983,13.871,44.037,14.11,43.904,14.183L43.904,14.183z"/>
</g>
</svg>
