<?xml version="1.0" encoding="utf-8"?>
<!-- Generator: Adobe Illustrator 16.0.0, SVG Export Plug-In . SVG Version: 6.00 Build 0)  -->
<!DOCTYPE svg PUBLIC "-//W3C//DTD SVG 1.1//EN" "http://www.w3.org/Graphics/SVG/1.1/DTD/svg11.dtd">
<svg version="1.1" id="Layer_1" xmlns="http://www.w3.org/2000/svg" xmlns:xlink="http://www.w3.org/1999/xlink" x="0px" y="0px"
	 width="150.555px" height="52.466px" viewBox="0 0 150.555 52.466" enable-background="new 0 0 150.555 52.466"
	 xml:space="preserve">
<g>
	<g>
		<g>
			<path fill="#282829" d="M21.052,17.237c-6.253-5.52-18.573-2.556-17.896,6.99c0.223,3.152,3.39,4.796,5.896,5.893
				c4.414,1.932,9.033,2.293,11.966,6.604c2.01,2.956,0.396,7.729-1.277,10.312c-4.335,6.698-13.677,3.337-17.851-1.156
				C1.565,45.529-0.008,46.523,0,46.531c3.806,4.097,8.766,5.637,14.28,4.365c3.615-0.833,7.497-3.144,8.668-6.872
				c2.725-8.673-3.236-11.562-10.406-14.009c-3.997-1.364-7.27-3.244-7.586-7.7c-0.568-8.012,9.713-8.392,14.205-4.427
				C19.55,18.231,21.014,17.204,21.052,17.237L21.052,17.237z"/>
		</g>
	</g>
	<g>
		<g>
			<path fill="#282829" d="M30.915,50.221c0-8.524,0-17.048,0-25.572c-0.577,0.231-1.155,0.462-1.732,0.693
				c1.235,0,2.184,2.301,2.768,3.148c1.956,2.835,3.911,5.669,5.867,8.504c3.191,4.626,6.383,9.252,9.575,13.878
				c0.173,0.251,1.897-0.343,1.891-0.65c-0.171-8.52-0.036-17.052-0.036-25.572c0-0.065-1.891,0.21-1.891,0.651
				c0,8.521-0.136,17.053,0.036,25.571c0.63-0.217,1.26-0.434,1.891-0.65c-3.376-4.894-6.752-9.788-10.128-14.682
				c-2.001-2.9-4.002-5.801-6.003-8.701c-0.695-1.007-1.083-2.231-2.396-2.231c-0.285,0-1.732,0.311-1.732,0.693
				c0,8.523,0,17.048,0,25.571C29.024,50.938,30.915,50.662,30.915,50.221L30.915,50.221z"/>
		</g>
	</g>
	<g>
		<g>
			<path fill="#282829" d="M78.565,38.086c-0.305,8.161-5.978,14.447-14.982,11.446c-5.089-1.696-6.884-7.327-7.062-12.097
				c-0.309-8.286,6.59-14.292,14.982-11.474C76.595,27.672,78.387,33.308,78.565,38.086c0.003,0.09,1.906-0.228,1.891-0.65
				c-0.67-17.993-25.188-16.382-25.826,0.65c-0.339,9.047,7.369,14.57,15.822,12.622c6.462-1.49,9.765-6.876,10.003-13.272
				C80.458,37.394,78.582,37.629,78.565,38.086z"/>
		</g>
	</g>
	<g>
		<g>
			<path fill="#282829" d="M107.19,38.086c-0.305,8.162-5.978,14.446-14.981,11.446c-5.089-1.695-6.885-7.327-7.062-12.097
				c-0.308-8.285,6.589-14.293,14.981-11.474C105.221,27.672,107.012,33.308,107.19,38.086c0.003,0.09,1.906-0.228,1.891-0.65
				c-0.67-17.992-25.188-16.383-25.825,0.65c-0.338,9.047,7.368,14.571,15.822,12.622c6.463-1.49,9.765-6.876,10.003-13.272
				C109.083,37.394,107.207,37.629,107.19,38.086z"/>
		</g>
	</g>
	<g>
		<g>
			<path fill="#282829" d="M108.53,25.341c6.596,0,13.191,0,19.787,0c0.408,0,1.894-0.734,1.574-0.734c-6.596,0-13.191,0-19.787,0
				C109.696,24.607,108.211,25.341,108.53,25.341L108.53,25.341z"/>
		</g>
	</g>
	<g>
		<g>
			<path fill="#282829" d="M131.071,25.3c2.917,4.576,6.504,9.107,8.805,14.026c0.126,0.271,1.755-0.348,1.873-0.594
				c2.34-4.914,5.882-9.44,8.806-14.027c-0.016,0.024-1.571,0.093-1.855,0.537c-2.923,4.586-6.465,9.113-8.806,14.027
				c0.625-0.198,1.249-0.396,1.873-0.594c-2.301-4.92-5.888-9.451-8.805-14.027C132.749,24.315,131.003,25.193,131.071,25.3
				L131.071,25.3z"/>
		</g>
	</g>
	<g>
		<g>
			<path fill="#282829" d="M120.156,50.221c0-8.524,0-17.048,0-25.572c0-0.065-1.891,0.21-1.891,0.651c0,8.523,0,17.048,0,25.571
				C118.266,50.938,120.156,50.662,120.156,50.221c0-8.524,0-17.048,0-25.572c0-0.065-1.891,0.21-1.891,0.651
				c0,8.523,0,17.048,0,25.571C118.266,50.938,120.156,50.662,120.156,50.221z"/>
		</g>
	</g>
	<g>
		<g>
			<path fill="#282829" d="M139.876,39.326c0,3.849,0,7.697,0,11.545c0,0.066,1.891-0.209,1.891-0.65c0-3.849,0-7.697,0-11.545
				C141.767,38.609,139.876,38.885,139.876,39.326c0,3.849,0,7.697,0,11.545c0,0.066,1.891-0.209,1.891-0.65
				c0-3.849,0-7.697,0-11.545C141.767,38.609,139.876,38.885,139.876,39.326z"/>
		</g>
	</g>
</g>
<g>
	<g>
		<path fill="#1FBCBC" d="M23.731,20.634c-0.051-0.025-5.219-2.541-9.552-4.297c-1.583-0.642-8.277-2.848-8.345-2.871l-0.26-0.085
			l0.741-1.025l2.554,0.478l0.926-2.312l13.106,5.249l-0.925,2.31l2.073,1.307l-0.038,1.383L23.731,20.634z"/>
		<path fill="#FFFFFF" d="M9.906,10.782l3.633,1.456l9.101,3.645l-0.913,2.278l2.118,1.335l-0.026,0.958
			c0,0-5.175-2.523-9.565-4.303c-1.608-0.652-8.357-2.875-8.357-2.875l0.506-0.701l2.59,0.485L9.906,10.782 M9.684,10.262
			l-0.148,0.371l-0.791,1.973l-2.268-0.424l-0.25-0.047L6.079,12.34l-0.506,0.701l-0.32,0.443l0.519,0.171
			c0.067,0.022,6.755,2.227,8.332,2.866c4.327,1.754,9.488,4.267,9.54,4.292l0.558,0.272l0.017-0.621l0.026-0.958l0.006-0.228
			l-0.193-0.122L22.223,18l0.789-1.969l0.149-0.372l-0.371-0.148l-9.101-3.645l-3.633-1.456L9.684,10.262L9.684,10.262z"/>
	</g>
	<g>
		
			<rect x="13.352" y="0.634" transform="matrix(-0.3719 0.9283 -0.9283 -0.3719 32.5639 -6.6503)" fill="#1FBCBC" width="10.359" height="14.118"/>
		<path fill="#FFFFFF" d="M14.017,0.52l4.192,1.679L26.75,5.62l-3.703,9.245l-9.101-3.646l-3.633-1.455L14.017,0.52 M13.794,0
			l-0.148,0.371L9.942,9.616L9.793,9.987l0.371,0.148l3.633,1.455l9.101,3.646l0.372,0.149l0.148-0.371l3.703-9.245l0.148-0.372
			l-0.371-0.148l-8.542-3.421l-4.192-1.679L13.794,0L13.794,0z"/>
	</g>
</g>
</svg>
