<?xml version="1.0" encoding="utf-8"?>
<!-- Generator: Adobe Illustrator 16.0.0, SVG Export Plug-In . SVG Version: 6.00 Build 0)  -->
<!DOCTYPE svg PUBLIC "-//W3C//DTD SVG 1.1//EN" "http://www.w3.org/Graphics/SVG/1.1/DTD/svg11.dtd">
<svg version="1.1" id="Layer_1" xmlns="http://www.w3.org/2000/svg" xmlns:xlink="http://www.w3.org/1999/xlink" x="0px" y="0px"
	 width="19.625px" height="20.256px" viewBox="0 0 19.625 20.256" enable-background="new 0 0 19.625 20.256" xml:space="preserve">
<g>
	<g>
		<polyline points="4.68,1.327 3.875,1.327 0,4.702 2.917,6.535 0.292,9.077 9.812,20.256 		"/>
		<polyline points="14.945,1.327 15.75,1.327 19.625,4.702 16.708,6.535 19.333,9.077 9.812,20.256 		"/>
	</g>
	<circle cx="9.812" cy="12.668" r="0.867"/>
	<circle cx="9.812" cy="8.918" r="0.867"/>
	<circle cx="9.812" cy="5.169" r="0.867"/>
	<circle cx="9.812" cy="1.327" r="0.898"/>
	<g>
		<g>
			<g>
				<path d="M7.678,0.129C7.21-0.16,6.827,0.054,6.827,0.604V2.05c0,0.55,0.383,0.764,0.851,0.475l1.091-0.672
					c0.468-0.289,0.468-0.762,0-1.051L7.678,0.129z"/>
			</g>
			<g>
				<path d="M11.947,0.129c0.468-0.289,0.851-0.075,0.851,0.475V2.05c0,0.55-0.383,0.764-0.851,0.475l-1.091-0.672
					c-0.468-0.289-0.468-0.762,0-1.051L11.947,0.129z"/>
			</g>
		</g>
	</g>
</g>
</svg>
